<svg version="1.2" xmlns="http://www.w3.org/2000/svg" viewBox="0 0 538 632" width="538" height="632"><style>.s0{fill:#f2f2f2}.s1{fill:#cccccc}.s2{fill:#e6e6e6}.s3{fill:#ffffff}.s4{fill:#63d1ff}.s5{opacity: .2;fill:#000000}.s6{fill:#3f3d56}.s7{fill:#ffb7b7}.s8{fill:#2f2e41}</style><path class="s0" d="m529.1 445.4q-0.4 3.1-1 6q-0.6 3-1.4 5.9q-0.8 2.9-1.7 5.8q-1 2.9-2.2 5.7c-2.8 6.6-6.3 12.9-10.4 18.8c-4.2 5.9-8.9 11.3-14.2 16.1c-5.4 4.9-11.2 9.1-17.4 12.7c-6.2 3.6-12.8 6.5-19.7 8.7l1.4-21.7c-1.6-4.2-2.7-8.5-3.4-12.9c-0.6-4.4-0.8-8.9-0.5-13.3c0.4-4.4 1.2-8.8 2.5-13.1c1.4-4.2 3.2-8.3 5.4-12.2c14.5-24.6 46.8-38.5 52.4-66.6q2.8 5.4 4.9 11q2.2 5.7 3.6 11.5q1.4 5.9 2.1 11.8q0.7 6 0.6 12l-26.4 15.5c0 0 13-0.1 25.4-1.7z" /><path class="s1" d="m616.7 526.6q0 0.2-0.1 0.5q-0.1 0.2-0.3 0.3q-0.1 0.2-0.4 0.3q-0.2 0.1-0.4 0.1h-673.3c-0.3 0-0.6-0.1-0.9-0.4c-0.2-0.2-0.3-0.5-0.3-0.8c0-0.3 0.1-0.6 0.3-0.8c0.3-0.3 0.6-0.4 0.9-0.4h673.3q0.2 0 0.4 0.1q0.3 0.1 0.4 0.3q0.2 0.1 0.3 0.3q0.1 0.3 0.1 0.5z" /><path class="s2" d="m220 475.9c-118.9 0-215-96.1-215-215c0-118.9 96.1-215 215-215c118.9 0 215 96.1 215 215c0 118.9-96.1 215-215 215z" /><path class="s3" d="m405 260.9c0 14.4-1.7 28.7-5 42.7c-3.3 14-8.2 27.5-14.7 40.4c-6.5 12.8-14.4 24.9-23.7 35.9c-9.2 11-19.7 20.9-31.3 29.5q-2.3 1.7-4.7 3.4c-15.4 10.7-32.4 19-50.3 24.6c-17.9 5.6-36.5 8.5-55.3 8.5c-18.8 0-37.4-2.9-55.3-8.5c-17.9-5.6-34.9-13.9-50.3-24.6q-2.4-1.7-4.7-3.4c-23.2-17.2-42-39.6-55-65.4c-12.9-25.8-19.7-54.3-19.7-83.1c0-28.9 6.8-57.4 19.7-83.1c13-25.8 31.8-48.2 55-65.4q2.3-1.8 4.7-3.4c15.4-10.7 32.4-19.1 50.3-24.7c17.9-5.6 36.5-8.4 55.3-8.4c18.8 0 37.4 2.8 55.3 8.4c17.9 5.6 34.9 14 50.3 24.7q2.4 1.6 4.7 3.4c11.6 8.5 22.1 18.4 31.3 29.4c9.3 11 17.2 23.1 23.7 35.9c6.5 12.9 11.4 26.5 14.7 40.4c3.3 14 5 28.4 5 42.8z" /><path class="s4" d="m220 429.9c-93.5 0-169-75.6-169-169c0-93.5 75.5-169 169-169c93.5 0 169 75.5 169 169c0 93.4-75.5 169-169 169z" /><path class="s5" d="m339.9 141.8c31.7 31.7 49.5 74.7 49.5 119.5c0 44.9-17.8 87.8-49.5 119.5c-31.7 31.7-74.6 49.5-119.5 49.5q-7.4 0-14.8-0.6c42.9-2 83.4-20.1 113.3-50.8c30-30.7 47.2-71.6 48.1-114.4c0.9-42.9-14.5-84.5-43.2-116.5c-28.6-31.9-68.3-51.7-111-55.5q3.8-0.2 7.6-0.2c44.9 0 87.8 17.8 119.5 49.5z" /><path class="s3" d="m222.6 80.3q1 0.4 1.8 1.2q0.8 0.8 1.2 1.8q0.4 1 0.4 2.1v24c0 1.4-0.6 2.8-1.6 3.9c-1 1-2.4 1.6-3.9 1.6c-1.5 0-2.9-0.6-3.9-1.6c-1-1.1-1.6-2.5-1.6-3.9v-24q0-1.1 0.4-2.1q0.4-1 1.2-1.8q0.8-0.8 1.8-1.2q1-0.4 2.1-0.4q1.1 0 2.1 0.4z" /><path class="s3" d="m330.7 113.7q0.1 0.6 0 1.3q0 0.7-0.3 1.3q-0.2 0.7-0.6 1.2l-13.5 19.9c-0.8 1.2-2.1 2-3.5 2.3c-1.5 0.3-2.9-0.1-4.2-0.9c-1.2-0.8-2-2.1-2.3-3.5c-0.2-1.4 0.1-2.9 0.9-4.1l13.5-19.8q0.4-0.6 1-1.1q0.5-0.5 1.1-0.8q0.7-0.3 1.4-0.4q0.7-0.2 1.4-0.1q2.4 1.6 4.7 3.4q0.3 0.6 0.4 1.3z" /><path class="s3" d="m392.1 204.9q0 1.1-0.4 2.1q-0.4 1-1.2 1.8q-0.8 0.7-1.8 1.1l-22.3 9.1c-1.3 0.5-2.8 0.5-4.2-0.1c-1.3-0.5-2.4-1.6-2.9-3c-0.6-1.3-0.6-2.8 0-4.2c0.6-1.3 1.7-2.4 3-2.9l22.2-9q1.1-0.5 2.2-0.4q1 0 2.1 0.4q1 0.4 1.7 1.2q0.8 0.8 1.2 1.8q0.4 1 0.4 2.1z" /><path class="s3" d="m133.7 135.3c-0.3 1.4-1.1 2.7-2.4 3.5c-1.2 0.8-2.6 1.2-4.1 0.9c-1.4-0.3-2.7-1.1-3.5-2.3l-13.5-19.9q-0.4-0.5-0.6-1.2q-0.3-0.6-0.3-1.3q-0.1-0.7 0-1.3q0.1-0.7 0.4-1.3q2.3-1.8 4.7-3.4q0.7-0.1 1.4 0.1q0.7 0.1 1.4 0.4q0.6 0.3 1.1 0.8q0.6 0.5 1 1.1l13.5 19.8c0.8 1.2 1.1 2.7 0.9 4.1z" /><path class="s3" d="m80.7 211.7c0.5 1.4 0.6 2.9 0 4.2c-0.5 1.4-1.6 2.5-2.9 3c-1.4 0.6-2.9 0.6-4.3 0.1l-22.2-9.1c-1.3-0.5-2.4-1.6-3-2.9c-0.6-1.4-0.6-2.9 0-4.2c0.5-1.4 1.6-2.4 2.9-3c1.4-0.6 2.9-0.6 4.2 0l22.3 9c1.3 0.5 2.4 1.6 3 2.9z" /><path class="s3" d="m222.6 407.3q1 0.4 1.8 1.2q0.8 0.8 1.2 1.8q0.4 1 0.4 2.1v24c0 1.4-0.6 2.8-1.6 3.9c-1 1-2.4 1.6-3.9 1.6c-1.5 0-2.9-0.6-3.9-1.6c-1-1.1-1.6-2.5-1.6-3.9v-24q0-1.1 0.4-2.1q0.4-1 1.2-1.8q0.8-0.8 1.8-1.2q1-0.4 2.1-0.4q1.1 0 2.1 0.4z" /><path class="s3" d="m330.4 405.4q0.3 0.6 0.3 1.3q0.1 0.7 0 1.4q-0.1 0.6-0.4 1.3q-2.3 1.7-4.7 3.4q-0.7 0-1.4-0.1q-0.7-0.2-1.4-0.5q-0.6-0.3-1.1-0.8q-0.6-0.4-1-1l-13.5-19.9c-0.8-1.2-1.1-2.6-0.9-4.1c0.3-1.4 1.1-2.7 2.3-3.5c1.3-0.8 2.7-1.1 4.2-0.9c1.4 0.3 2.7 1.2 3.5 2.4l13.5 19.8q0.4 0.6 0.6 1.2z" /><path class="s3" d="m391.7 314.7c0.5 1.4 0.6 2.9 0 4.2c-0.5 1.4-1.6 2.5-2.9 3c-1.4 0.6-2.9 0.6-4.3 0.1l-22.2-9.1c-1.3-0.5-2.4-1.6-3-2.9c-0.6-1.4-0.6-2.9 0-4.2c0.5-1.4 1.6-2.4 2.9-3c1.4-0.6 2.9-0.6 4.2 0l22.3 9c1.3 0.5 2.4 1.6 3 2.9z" /><path class="s3" d="m132.9 384.4q0.5 1 0.8 2q0.2 1.1-0.1 2.2q-0.2 1-0.8 1.9l-13.5 19.9q-0.4 0.6-1 1q-0.5 0.5-1.1 0.8q-0.7 0.3-1.4 0.5q-0.7 0.1-1.4 0.1q-2.4-1.7-4.7-3.4q-0.3-0.7-0.4-1.3q-0.1-0.7 0-1.4q0-0.7 0.3-1.3q0.2-0.6 0.6-1.2l13.5-19.8q0.6-0.9 1.5-1.5q1-0.6 2-0.9q1.1-0.2 2.2 0.1q1 0.2 1.9 0.8q1 0.6 1.6 1.5z" /><path class="s3" d="m81.1 307.9q0 1.1-0.4 2.1q-0.4 1-1.2 1.8q-0.8 0.7-1.8 1.1l-22.3 9.1c-1.3 0.5-2.8 0.5-4.2-0.1c-1.3-0.5-2.4-1.6-2.9-3c-0.6-1.3-0.6-2.8 0-4.2c0.6-1.3 1.7-2.4 3-2.9l22.2-9q1.1-0.5 2.2-0.4q1 0 2.1 0.4q1 0.4 1.7 1.2q0.8 0.8 1.2 1.8q0.4 1 0.4 2.1z" /><path class="s6" d="m227.6 258.1c0.3 1.5 0.2 3-0.1 4.5c-0.3 1.5-1 2.9-1.8 4.1c-0.9 1.2-2 2.3-3.3 3.1c-1.3 0.8-2.7 1.3-4.2 1.6l-97.6 16.6c-3 0.5-6.1-0.2-8.6-2c-2.4-1.7-4.1-4.4-4.6-7.4c-0.5-3 0.2-6.1 1.9-8.6c1.8-2.5 4.5-4.2 7.5-4.7l97.6-16.6c1.5-0.2 3-0.2 4.5 0.2c1.4 0.3 2.8 0.9 4 1.8c1.3 0.9 2.3 2 3.1 3.2c0.8 1.3 1.4 2.7 1.6 4.2z" /><path class="s6" d="m330.4 366.3q-1.1 1-2.5 1.6q-1.4 0.6-2.8 0.6q-1.5 0-2.9-0.6q-1.4-0.5-2.5-1.6l-105-104.2c-1.4-1.4-2.2-3.3-2.2-5.3c0-2 0.7-3.9 2.1-5.3c1.4-1.4 3.4-2.2 5.3-2.2c2-0.1 3.9 0.7 5.3 2.1l105.1 104.3q1.1 1 1.6 2.4q0.6 1.4 0.6 2.9q0 1.4-0.5 2.8q-0.6 1.4-1.6 2.5z" /><path class="s1" d="m220 273.9c-7.2 0-13-5.8-13-13c0-7.2 5.8-13 13-13c7.2 0 13 5.8 13 13c0 7.2-5.8 13-13 13z" /><path class="s2" d="m130.5 35.4c-20 31.4-50.4 52.2-88 65.9q-1.1 0.9-2.5 1.2q-1.3 0.3-2.7 0.2q-1.4-0.2-2.6-1q-1.2-0.7-2.1-1.8c-20.4-27.2-15.8-66.2 11.2-87c6.5-5 13.9-8.7 21.8-10.8c8-2.1 16.3-2.6 24.4-1.5c8.2 1.1 16 3.8 23.1 7.9c7.1 4.2 13.3 9.7 18.2 16.3l0.6 0.8q0.8 1.1 1.2 2.4q0.3 1.4 0.1 2.8q-0.2 1.4-0.9 2.6q-0.7 1.2-1.8 2z" /><path class="s2" d="m308.7 24.8c4.9-6.6 11.1-12.1 18.2-16.3c7.1-4.1 14.9-6.8 23.1-7.9c8.1-1.1 16.4-0.6 24.4 1.5c7.9 2.1 15.3 5.8 21.8 10.8c27 20.8 31.6 59.8 11.2 87q-0.9 1.1-2.1 1.8q-1.2 0.8-2.6 1q-1.4 0.1-2.7-0.2q-1.4-0.3-2.5-1.2c-34.9-13.3-63.5-36.4-88-65.9q-1.1-0.8-1.8-2q-0.7-1.2-0.9-2.6q-0.2-1.4 0.1-2.8q0.4-1.3 1.2-2.4z" /><path class="s2" d="m302 446.5q1.1-0.2 2.1 0.1q1.1 0.3 1.9 1q0.9 0.7 1.4 1.6l31.8 56.8c0.7 1.2 0.9 2.7 0.5 4.2c-0.4 1.4-1.4 2.5-2.6 3.3c-1.3 0.7-2.8 0.8-4.2 0.4c-1.4-0.3-2.6-1.3-3.3-2.6l-31.8-56.7q-0.5-0.9-0.6-2q-0.2-1.1 0.1-2.2q0.3-1 1-1.9q0.7-0.8 1.6-1.4q1-0.5 2.1-0.6z" /><path class="s2" d="m135.9 446.6c1.4-0.4 2.9-0.2 4.2 0.5c1.2 0.7 2.2 1.9 2.6 3.3c0.4 1.4 0.2 2.9-0.5 4.2l-31.8 56.7c-0.7 1.3-1.9 2.3-3.3 2.6c-1.4 0.4-2.9 0.3-4.2-0.4c-1.2-0.8-2.2-1.9-2.6-3.3c-0.4-1.5-0.2-3 0.5-4.2l31.8-56.8c0.7-1.2 1.9-2.2 3.3-2.6z" /><path class="s2" d="m336 525.9c-9.4 0-17-7.6-17-17c0-9.4 7.6-17 17-17c9.4 0 17 7.6 17 17c0 9.4-7.6 17-17 17z" /><path class="s2" d="m348 90.9c-9.4 0-17-7.6-17-17c0-9.4 7.6-17 17-17c9.4 0 17 7.6 17 17c0 9.4-7.6 17-17 17z" /><path class="s2" d="m219 50.9c-9.4 0-17-7.6-17-17c0-9.4 7.6-17 17-17c9.4 0 17 7.6 17 17c0 9.4-7.6 17-17 17z" /><path class="s2" d="m96 88.9c-9.4 0-17-7.6-17-17c0-9.4 7.6-17 17-17c9.4 0 17 7.6 17 17c0 9.4-7.6 17-17 17z" /><path class="s2" d="m107 525.9c-9.4 0-17-7.6-17-17c0-9.4 7.6-17 17-17c9.4 0 17 7.6 17 17c0 9.4-7.6 17-17 17z" /><path class="s7" d="m321.4 350.8c0.3-2.1 1.4-4 3-5.3c1.6-1.4 3.6-2.1 5.7-2c2.1 0.1 4.1 0.9 5.6 2.3l25.2 11.2l1.4 15.7l-26.7-14.3c-0.9 0.8-2 1.5-3.2 1.8c-1.2 0.4-2.4 0.5-3.7 0.4c-1.2-0.2-2.4-0.6-3.4-1.3c-1.1-0.7-2-1.5-2.6-2.6c-1.2-1.8-1.6-3.9-1.3-5.9z" /><path class="s6" d="m342.1 362.2l10.5-14.5l50.3 23.8l62.7-11.7c3.1-0.6 6.3-0.5 9.3 0.3c3.1 0.8 5.9 2.2 8.3 4.3c2.5 2 4.4 4.5 5.8 7.3c1.3 2.9 2 6 2 9.2c0 2.8-0.5 5.6-1.6 8.2c-1.1 2.6-2.7 4.9-4.7 6.9c-1.9 2-4.3 3.6-6.9 4.7c-2.6 1.1-5.4 1.7-8.2 1.7l-71.8 0.1z" /><path class="s7" d="m326 611.4l-10.6-5.1l14.6-44.2l15.6 7.5l-19.6 41.8z" /><path class="s7" d="m396.9 604.3q-1.1 0.7-2.3 1.4q-2.3 1.4-4.7 2.8q-1.2 0.7-2.3 1.4h-0.1l-1.2 0.3l-1.7-4.5l-0.8-2.1l-1.1-3l-2.1-5.4l-10.8-28.5l16.8-4.2l0.6 2.6l0.4 1.3l5.8 23.8l1.2 4.8l0.1 0.2l0.7 2.9l0.6 2.5l0.7 2.8z" /><path class="s8" d="m497.1 504.1q-1.6 2.6-3.3 5.1q-3 4.8-6.3 9.3q0 0 0 0q-0.4 0.5-0.9 0.9q-0.5 0.4-1 0.8q-0.6 0.3-1.1 0.7q-0.5 0.3-1.1 0.6q-0.1 0.1-0.2 0.2q-0.4 0.2-0.8 0.4q-0.4 0.2-0.9 0.4q-0.4 0.1-0.9 0.3q-0.4 0.1-0.9 0.2q-0.6 0.2-1.3 0.4q-2.3 0.5-4.6 0.9q-4.2 0.8-8.2 1.1q-0.3 0-0.7 0.1c-11.1 0.8-21.9-0.5-33.2-2.7c-5.6-1-11.3-2.3-17.2-3.6q-2.9-0.7-5.8-1.3q-0.2-0.1-0.4-0.1q-4.2-0.9-8.6-1.8q-5.5-1.2-11.4-2.2l0.3 5.5q0.1 1.6 0.3 3.2q0.2 1.6 0.5 3.2q0.4 1.5 0.8 3.1q0.5 1.5 1 3c1.7 4.9 3 8.8 0.2 16.9l-1.3 3.9q0.5 1.4 0.7 3q0.2 1.5 0 3.1q-0.2 1.5-0.7 3q-0.6 1.4-1.4 2.7l-0.3 0.4l11.3 28.5l0.7 1.9h-5.7h-7.1h-12.1l-17.3-34.8l-0.9-1.7v-0.1l1.8-66.9q0.1-0.9 0.2-1.8q0.2-2 0.8-3.9q0.7-2 1.7-3.7q1-1.8 2.3-3.3q1.3-1.6 2.9-2.8q1.6-1.2 3.3-2.1q1.7-0.9 3.6-1.4q1.9-0.5 3.8-0.6q2-0.2 3.9 0.1l6 0.8l12.1 1.5l8.6 1.1l0.1 0.1l25.3 3.2l1.8-7.4l0.3-0.1l10.6-3.9l36.7-13.4l0.1-0.1l2.5-0.8l0.2 0.4q0.2 0.2 0.3 0.4q0.9 1.6 1.7 3.3q0.8 1.6 1.5 3.3q0.8 1.7 1.4 3.4q0.6 1.8 1.2 3.5q0.9 2.9 1.8 5.8q0.8 2.9 1.6 5.8q0.7 2.9 1.4 5.8q0.7 2.9 1.3 5.9q0.1 0.5 0.2 0.9v0.1q0 0.2 0.1 0.3c0.8 3.5 0.2 7.8-1.3 12z" /><path class="s8" d="m499.1 482.3q0.1 1.4 0.1 2.9q-0.1 1.4-0.4 2.8q-0.2 1.4-0.7 2.8q-0.8 2.4-2.1 4.5q-1.4 2-3.2 3.7q-1.8 1.7-4 2.9q-2.2 1.2-4.6 1.9q-0.5 0.1-1.1 0.2q-2.3 0.6-4.7 1.1q-6.5 1.4-13.5 2.2c-16.5 2.1-35.2 1.9-56.6-0.5q-10-1.1-20.7-2.9q-2.4-0.3-4.8-0.7l-20.5 48.7q-0.4 1.1-0.9 2.2q-0.5 1.1-1 2.1q-0.5 1.1-1.1 2.1q-0.5 1-1.1 2.1q-1.5 2.5-3.1 4.8l-9.5 13.9l-4.3-0.4l-16.3-1.6l-1.1-0.1l7.7-24.5q0.6-6.1 1.7-12q1-6 2.5-11.8q1.5-5.9 3.4-11.6q1.9-5.7 4.3-11.3l10.5-24.8q0-0.9 0.1-1.7q0.2-2 0.9-3.9q0.6-2 1.6-3.7q1-1.8 2.3-3.3q1.3-1.6 2.9-2.8q1.6-1.2 3.3-2.1q1.8-0.8 3.6-1.4q1.9-0.5 3.9-0.6q1.9-0.1 3.8 0.1l11.2 1.4l20.7 2.7l20 2.6h0.1l0.7-6l0.6-4.5q0 0 0 0l0.2-1.7l0.8-6.8l13.5-1.8l36.3-4.8l0.3 0.3q0 0.1 0 0.1q0 0 0 0q0 0 0 0.1q0.1 0 0.1 0q1.1 1.9 2.2 3.8q2.2 3.6 4.1 7c2.6 4.7 4.8 9.1 6.7 13.1q0.6 1.3 1.2 2.7q0.5 1.3 1.1 2.7q0.5 1.3 1 2.7q0.5 1.4 1 2.8q0.2 0.7 0.4 1.5q0.3 1.4 0.5 2.8z" /><path class="s8" d="m332.2 605.5l-8.1 25.7l-7.4-3l1.5-7.5l-6.2 5.6l-19.5-8c-1-0.4-1.7-1-2.3-1.9c-0.5-0.9-0.7-1.9-0.7-2.9c0.1-1 0.5-2 1.2-2.7c0.7-0.8 1.6-1.3 2.6-1.5l20-4.4l2.8-7.1l1.8 0.9l11.5 5.5z" /><path class="s8" d="m399.7 593.3l0.7 1.9h-0.7v-1.9z" /><path class="s8" d="m398.6 594.6l12.4 23.9l-7.4 3.1l-4.2-6.4l-0.4 8.3l-19.6 8.1c-0.9 0.4-1.9 0.5-2.9 0.2c-1-0.2-1.9-0.8-2.5-1.6c-0.7-0.7-1.1-1.7-1.1-2.7c-0.1-1 0.2-2 0.7-2.9l11.2-17.2l-3-7l1.9-0.7l12-4.1z" /><path class="s6" d="m495.6 490.7q-0.3 0-0.5 0q-0.3 0-0.5-0.1q-0.3-0.1-0.5-0.2q-0.3-0.1-0.5-0.2l-63.3-33l-0.7-3l-1.4-9.5v-0.1l6-27.7c-0.1-0.3-0.3-0.7-0.6-1.1c-2.7-4.6-10.8-18.4 4.8-37.5l27.4-31.9l23.5-1l0.2 0.3c3.2 3.9 5.8 8.2 7.9 12.8c2.1 4.6 3.6 9.4 4.5 14.3c0.9 5 1.2 10 0.9 15c-0.4 5-1.3 10-2.9 14.8l-2.4 44.2l2.6 8.9q0.6 2 0.8 4q0.3 2 0.2 4.1q-0.1 2-0.5 4q-0.4 2-1.2 3.9l0.6 14.4q0 0.9-0.3 1.8q-0.3 0.8-0.9 1.5q-0.6 0.6-1.5 1q-0.8 0.3-1.7 0.3z" /><path class="s7" d="m434.7 528.3c-2-0.4-3.9-1.6-5.1-3.2c-1.3-1.7-2-3.7-1.8-5.8c0.1-2.1 1-4.1 2.5-5.6l12.1-24.7l15.7-0.8l-15.2 26.1c0.8 1 1.4 2.1 1.7 3.3c0.3 1.2 0.4 2.4 0.2 3.7c-0.2 1.2-0.7 2.3-1.4 3.4c-0.7 1-1.6 1.9-2.7 2.5c-1.8 1.1-3.9 1.5-6 1.1z" /><path class="s6" d="m446.9 508l-14.1-11l25.6-49.5l-9.6-63c-0.5-3.1-0.3-6.3 0.6-9.3c0.9-3.1 2.5-5.9 4.6-8.2c2.1-2.4 4.6-4.2 7.5-5.5c2.9-1.2 6.1-1.8 9.2-1.7c2.8 0.1 5.6 0.7 8.2 1.9c2.5 1.2 4.8 2.8 6.8 4.9c1.9 2 3.4 4.5 4.4 7.1c1 2.6 1.5 5.4 1.4 8.3l-2.4 71.7z" /><path class="s8" d="m450.7 333.1v-23.3c0-8.2 3.3-16.2 9.1-22c5.8-5.9 13.8-9.2 22-9.2c8.3 0 16.2 3.3 22.1 9.2c5.8 5.8 9.1 13.7 9.1 22c5.5 11.5 2.1 16.9 0 23.3q0 0.8-0.3 1.6q-0.3 0.8-0.9 1.4q-0.6 0.5-1.4 0.9q-0.7 0.3-1.6 0.3h-53.9q-0.9 0-1.6-0.3q-0.8-0.3-1.4-0.9q-0.6-0.6-0.9-1.4q-0.3-0.8-0.3-1.6z" /><path class="s7" d="m471.6 335.8c-12.9 0-23.3-10.5-23.3-23.4c0-12.9 10.4-23.3 23.3-23.3c12.9 0 23.4 10.4 23.4 23.3c0 12.9-10.5 23.4-23.4 23.4z" /><path class="s8" d="m496.1 318.6q-0.4-0.1-0.7-0.2q-5.4-0.9-10.9-1.9l-0.3-8.2l-4.4 7.4c-10 3.3-19.4 1.4-28.3-2.8q-1.1-0.5-2.1-1q-1.1-0.6-2.2-1.2q-1-0.5-2.1-1.2q-1-0.6-2-1.2q0.5-3.4 1.8-6.6q1.3-3.2 3.3-6.1q2-2.8 4.5-5.2q2.6-2.3 5.6-4q0.5-0.3 1-0.5q0 0 0 0q0 0 0 0q0 0 0 0q0 0 0 0q0.8-0.4 1.7-0.8c2.3-0.9 4.6-1.4 7-1.7c2.4-0.2 4.9 0 7.3 0.4c2.3 0.5 4.6 1.3 6.8 2.4c2.1 1.1 4.1 2.5 5.9 4.1c7.1 6.8 10.3 18.1 8.1 28.3z" /></svg>