<svg version="1.2" xmlns="http://www.w3.org/2000/svg" viewBox="0 0 548 792" width="548" height="792">
	<title>undraw_hiking_re_k0bc (2)-svg</title>
	<style>
		.s0 { fill: #3f3d56 } 
		.s1 { fill: #81b645 } 
		.s2 { fill: #e5e5e5 } 
		.s3 { opacity: .2;fill: #000000 } 
		.s4 { fill: #cbcbcb } 
		.s5 { fill: #f1f1f1 } 
		.s6 { fill: #ffb7b7 } 
		.s7 { fill: #2f2e41 } 
	</style>
	<path id="Layer" class="s0" d="m722.3 699.9c0 0 0.6-13 13.3-11.5" />
	<path id="Layer" class="s1" d="m718.7 687.5c-3.6 0-6.4-2.9-6.4-6.4c0-3.5 2.8-6.4 6.4-6.4c3.5 0 6.3 2.9 6.3 6.4c0 3.5-2.8 6.4-6.3 6.4z" />
	<path id="Layer" class="s0" d="m717.6 691.9h1.8v12.6h-1.8z" />
	<path id="Layer" class="s2" d="m289.2 316.9q0 4.8-0.3 9.5q-0.4 6.8-1.5 13.5q-1.1 6.7-2.8 13.2q-1.7 6.6-4 13q-2.3 6.4-5.2 12.5q-0.1 0.2-0.1 0.4q-0.6 1.1-1.2 2.3q-0.8 1.7-1.7 3.4q-0.9 1.7-1.9 3.4q-1 1.7-2 3.4q-1 1.6-2 3.3c-6.4 9.9-13.9 19.1-22.5 27.2c-8.6 8.1-18.1 15.2-28.4 21c-10.3 5.8-21.3 10.3-32.7 13.4c-11.4 3.1-23.2 4.8-35 5.1l1.5 82.2l18.6-9.8l3.3 6.3l-21.8 11.5l2.7 152.8v2l-14.4 3.2v-2l4.5-246.2c-9.5-0.1-19-1.2-28.3-3.2c-9.3-2-18.4-5-27.1-8.8c-8.7-3.8-17.1-8.4-24.9-13.9c-7.8-5.4-15.1-11.6-21.7-18.5q-1.3-1.4-2.6-2.9q-0.1 0-0.1-0.1q-4.2-4.5-7.9-9.3q-3.7-4.8-7-9.9q-3.3-5.2-6.2-10.5q-2.9-5.4-5.3-11q0.2 0.2 0.4 0.4c-7.1-16.8-11.1-34.8-11.6-53.1c-0.4-18.3 2.6-36.5 8.9-53.7c6.3-17.1 15.8-33 28-46.6c12.3-13.6 26.9-24.8 43.3-32.9q0.8-0.4 1.5-0.8c16.2-7.8 33.8-12.5 51.7-13.9c17.9-1.4 36 0.6 53.2 5.8c17.2 5.3 33.3 13.6 47.5 24.8c14.1 11.1 26 24.8 35.2 40.3q1.3 2.2 2.5 4.5q4.3 7.9 7.6 16.2q3.2 8.4 5.4 17.1q2.2 8.7 3.3 17.6q1.1 8.9 1.1 17.8z" />
	<path id="Layer" class="s1" d="m269.8 379.1c-104.9 0-189.6-84.7-189.6-189.6c0-104.8 84.7-189.5 189.6-189.5c104.8 0 189.5 84.7 189.5 189.5c0 104.9-84.7 189.6-189.5 189.6z" />
	<path id="Layer" class="s3" d="m129.8 62.9c-41.1 96.3 3.5 207.7 99.8 248.8c18.1 7.8 37.4 12.7 57 14.5c19.7 1.8 39.5 0.6 58.8-3.7c19.2-4.3 37.7-11.6 54.7-21.6c17.1-10 32.4-22.6 45.5-37.4c-41.1 96.3-152.5 141-248.8 99.8c-96.2-41.1-140.9-152.5-99.8-248.8q3-7 6.6-13.8q3.6-6.8 7.7-13.3q4.1-6.5 8.8-12.6q4.6-6.1 9.7-11.9z" />
	<path id="Layer" class="s0" d="m280 717.6l-19.4-5.5l0.1-2.1l5.8-315.2l0.3-15.8v-0.4l1-55.1l1.5-79.8l1-54.2h0.5l1 58.7l1.3 76.3l1 54.1v0.4v2.3l1.9 105.5l0.2 10.5l3.8 218.2v2.1z" />
	<path id="Layer" class="s0" d="m269.1 490.4l31.3-16.4l4.4 8.2l-31.3 16.5z" />
	<path id="Layer" class="s4" d="m176.7 755.7h89.3v2h-89.3z" />
	<path id="Layer" class="s4" d="m340.7 789.7h89.3v2h-89.3z" />
	<path id="Layer" class="s4" d="m595.7 763.7h89.3v2h-89.3z" />
	<path id="Layer" class="s5" d="m644.2 682.3v-58.1c0 0 22.7 41.2 0 58.1z" />
	<path id="Layer" class="s5" d="m645.6 682.3l-42.8-39.3c0 0 45.7 11.2 42.8 39.3z" />
	<path id="Layer" class="s5" d="m201.2 696.3v-58.1c0 0 22.7 41.2 0 58.1z" />
	<path id="Layer" class="s5" d="m202.6 696.3l-42.8-39.3c0 0 45.7 11.2 42.8 39.3z" />
	<path id="Layer" class="s5" d="m355.2 738.3v-72.3c0 0 28.2 51.3 0 72.3z" />
	<path id="Layer" class="s5" d="m357 738.3l-53.3-48.9c0 0 56.8 13.9 53.3 48.9z" />
	<path id="Layer" class="s4" d="m813.3 729.5l-0.5 1.9l-167.9-47.8l-126.4 27.9l-161.7 27.6l-0.2-0.1l-76.6-21.4l-19.3-5.5l-59.2-16.6l-49.3 11l-14.4 3.2l-31.4 7l-0.4-1.9l31.8-7.1l14.4-3.2l49.4-11h0.2l58.9 16.5l19.3 5.5l76.9 21.6l161.2-27.6l126.9-27.9h0.2l168.1 47.9z" />
	<path id="Layer" class="s0" d="m515.1 123.2q1 1 1.8 2.1q0.8 1.1 1.5 2.3q0.7 1.2 1.1 2.5l-25.6-9.3c0 0 8.5-4.2 16.3-1c1.6-4.3 5.7-9.7 15.6-8.6l-12.7 10.2q1 0.9 2 1.8z" />
	<path id="Layer" class="s0" d="m45.1 119.2q1 1 1.8 2.1q0.8 1.1 1.5 2.3q0.7 1.2 1.1 2.5l-25.6-9.3c0 0 8.5-4.2 16.3-1c1.6-4.3 5.7-9.7 15.6-8.6l-12.7 10.2q1 0.9 2 1.8z" />
	<path id="Layer" class="s0" d="m487.1 314.2q1 1 1.8 2.1q0.8 1.1 1.5 2.3q0.7 1.2 1.1 2.5l-25.6-9.3c0 0 8.5-4.2 16.3-1c1.6-4.3 5.7-9.7 15.6-8.6l-12.7 10.2q1 0.9 2 1.8z" />
	<path id="Layer" class="s6" d="m398.2 752.6l14-37.7l14.4 5.3l-18.7 36l-9.7-3.6z" />
	<path id="Layer" class="s7" d="m396.8 748.5l19.3 7.1c1.6 0.6 3.1 1.5 4.4 2.7c1.2 1.2 2.2 2.6 2.9 4.1c0.8 1.6 1.2 3.3 1.2 5c0.1 1.7-0.2 3.4-0.8 5l-0.1 0.4l-31.6-11.7z" />
	<path id="Layer" class="s6" d="m494.4 762.7v-40.2h15.4l-5 40.2h-10.4z" />
	<path id="Layer" class="s7" d="m492.6 759.3h20.5c1.7 0 3.4 0.4 5 1c1.6 0.7 3.1 1.6 4.3 2.9c1.2 1.2 2.2 2.6 2.8 4.2c0.7 1.6 1 3.3 1 5v0.4h-33.6z" />
	<path id="Layer" class="s7" d="m446.6 483.7l3.4-6.8l29 14.4l-0.9 6l5.5 7.2c0 0 9.4 5.1 7.7 22.1l-1.7 16.2l-2.1 20.9l14.9 51.4l7.6 68.1l5.6 54.9l-26.8-1.3l-24.7-89.3l-43.4 96.1l-29.8-7.6l40.8-95.3l5.1-40c0 0-3.4-21.3 12.8-35.8l-2.5-7.6v-9.5l-8.6-45z" />
	<path id="Layer" class="s3" d="m444.9 581.2l0.9-0.2l18.8 66.3l-1 0.3z" />
	<path id="Layer" class="s0" d="m489.2 567.9h-41.7v-4.2h41.7z" />
	<path id="Layer" class="s0" d="m489.2 570.5c-1 0-1.7-1.9-1.7-4.3c0-2.3 0.7-4.3 1.7-4.3c0.9 0 1.7 2 1.7 4.3c0 2.4-0.8 4.3-1.7 4.3z" />
	<path id="Layer" class="s6" d="m490.3 463.6c-6 11-19.8 15.1-30.8 9.1c-11-6.1-15-19.8-9-30.8c6-11 19.7-15.1 30.8-9c11 6 15 19.7 9 30.7z" />
	<path id="Layer" class="s7" d="m435.7 444.7c-11.1 0-20.1-9-20.1-20.1c0-11.1 9-20.1 20.1-20.1c11.1 0 20 9 20 20.1c0 11.1-8.9 20.1-20 20.1z" />
	<path id="Layer" class="s7" d="m413.8 436.6c2.9 4.1 7.3 6.9 12.2 8c4.9 1 10.1 0.2 14.4-2.4c4.3-2.6 7.5-6.7 8.9-11.5c-0.7 5.5-3.7 10.6-8.2 13.8c-4.6 3.3-10.3 4.5-15.8 3.3c-5.5-1.1-10.2-4.5-13.1-9.4c-2.9-4.8-3.6-10.6-2-16c-0.6 5 0.6 10.1 3.6 14.2z" />
	<path id="Layer" class="s7" d="m489.5 446.5c1.2 10.6-4.9 20.8-14.9 24.7c-10 3.9-21.4 0.7-27.8-7.9c-6.4-8.7-6.2-20.5 0.5-28.9c6.7-8.4 18.2-11.3 28-7c4-3.2 8.9-2.2 12.9 1.1c4.5 3.8 5.8 6.5 9.3 12.7c-3.4 0.5-4.6 4.8-8 5.3z" />
	<path id="Layer" class="s1" d="m406.1 512.8q0.1-1 0.3-1.9q0.2-0.9 0.5-1.8q0.3-0.9 0.7-1.8l11.7-24.2q0.4-0.7 0.9-1.3q0.5-0.5 1.2-1q0.6-0.4 1.4-0.6q0.7-0.2 1.5-0.2h24.4q0.4 0 0.8 0.2q0.4 0.1 0.7 0.4q0.3 0.3 0.4 0.7q0.2 0.4 0.2 0.8l-2.1 83.3q-0.1 0.8-0.4 1.5q-0.3 0.7-0.8 1.3q-0.6 0.5-1.3 0.8q-0.7 0.3-1.5 0.4l-18.9 0.3q-0.6 0-1.2-0.1q-0.5-0.2-1-0.5q-0.5-0.3-0.9-0.7q-0.4-0.5-0.7-1q-0.3-0.7-0.8-1.7c-4.3-8.9-14.3-29.7-14.3-30.4c0-0.7-0.5-13.9-0.8-20.6q0-1 0-1.9z" />
	<path id="Layer" class="s1" d="m447.7 557.3q1.7-1 3.3-2.2q1.7-1.2 3.2-2.5q1.6-1.3 3-2.8q1.4-1.4 2.8-2.9q3-3.5 5.5-7.4q2.4-3.8 4.3-8.1q1.8-4.2 2.9-8.7q1.1-4.5 1.5-9c0.9-10.3-1.1-17.7-5.7-22.3c-5.1-5-12-4.9-13.7-4.9l-5.6 4.7l-1.7-2l6.2-5.3h0.4c0.4-0.1 9.5-1 16.3 5.5c5.2 5.2 7.4 13.4 6.5 24.5q-0.4 4.8-1.6 9.5q-1.2 4.7-3.1 9.1q-1.9 4.5-4.5 8.6q-2.6 4.1-5.8 7.7q-1.4 1.6-2.9 3.1q-1.5 1.5-3.1 2.9q-1.6 1.3-3.4 2.6q-1.7 1.2-3.5 2.3z" />
	<path id="Layer" class="s0" d="m413.6 528.9l0.1-0.8l33.1 6.8l-0.1 0.8z" />
	<path id="Layer" class="s0" d="m433.4 532.6l2.2-52.6h0.9l-2.2 52.7z" />
	<path id="Layer" class="s0" d="m406.1 513.7q0-0.5 0-1q0.1-0.4 0.2-0.9q0-0.5 0.1-1q1.3 0.5 2.5 1.3q1.1 0.8 2 1.8q0.8 1.1 1.4 2.3q0.6 1.3 0.8 2.6l8.1 46.9c-4.3-8.9-14.3-29.7-14.3-30.4c0-0.7-0.5-13.9-0.8-20.6q0-0.5 0-1z" />
	<path id="Layer" class="s6" d="m455.7 613c-0.7-1-1.2-2-1.5-3.2c-0.2-1.1-0.2-2.3 0-3.4c0.3-1.2 0.8-2.2 1.5-3.2c0.7-0.9 1.6-1.7 2.6-2.2l-1.6-18.2l10.8-3.6l1.9 25.6c0.8 1.8 0.9 3.9 0.3 5.7c-0.6 1.9-1.8 3.5-3.5 4.5c-1.7 1-3.7 1.3-5.6 1c-2-0.4-3.7-1.5-4.9-3z" />
	<path id="Layer" class="s4" d="m448.7 503.4q-0.2-2.1 0.3-4.1q0.5-2 1.7-3.8q1.1-1.7 2.8-3q1.6-1.2 3.6-1.9q0.8-0.3 1.7-0.4q0.9-0.2 1.8-0.2q0.9 0 1.8 0.2q0.9 0.1 1.8 0.4q1.8 0.7 3.4 1.8q1.6 1.2 2.7 2.8q1.2 1.6 1.7 3.4q0.6 1.9 0.6 3.9l0.8 92.2l-19.1 0.7z" />
</svg>